<svg width="100" height="76" viewBox="0 0 100 76" fill="none" xmlns="http://www.w3.org/2000/svg">
<path d="M84.7782 6.46584C78.2591 3.48427 71.3357 1.31123 64.1091 0.0983887C63.1995 1.665 62.1887 3.78746 61.4812 5.45515C53.7948 4.34335 46.1639 4.34335 38.5836 5.45515C37.8761 3.78746 36.8148 1.665 35.9556 0.0983887C28.6786 1.31123 21.7553 3.48427 15.2817 6.46584C2.19302 25.7703 -1.34447 44.62 0.42427 63.217C9.11635 69.5339 17.5053 73.3748 25.7477 75.9017C27.7691 73.1726 29.5884 70.2414 31.155 67.1589C28.1734 66.0471 25.3434 64.6826 22.6145 63.0654C23.322 62.5603 24.0295 62.0044 24.6865 61.4485C41.161 68.9783 59.0051 68.9783 75.2774 61.4485C75.9849 62.0044 76.6419 62.5603 77.3494 63.0654C74.6204 64.6826 71.7906 66.0471 68.8088 67.1589C70.3755 70.2414 72.1949 73.1726 74.2161 75.9017C82.4534 73.3748 90.8929 69.5339 99.5395 63.217C101.712 41.6891 96.098 22.9911 84.7782 6.46584ZM33.429 51.7455C28.4765 51.7455 24.4337 47.248 24.4337 41.7397C24.4337 36.2314 28.3754 31.7335 33.429 31.7335C38.432 31.7335 42.5252 36.2314 42.4241 41.7397C42.4241 47.248 38.432 51.7455 33.429 51.7455ZM66.636 51.7455C61.6833 51.7455 57.6354 47.248 57.6354 41.7397C57.6354 36.2314 61.5822 31.7335 66.636 31.7335C71.639 31.7335 75.7322 36.2314 75.6311 41.7397C75.6311 47.248 71.6895 51.7455 66.636 51.7455Z" fill="#5862E3"/>
</svg>
