<svg width="72" height="72" viewBox="0 0 52 52" fill="none" xmlns="http://www.w3.org/2000/svg">
<path d="M50.2666 23.4666L28.5333 1.73329C27.8666 1.06663 26.9333 0.666626 26 0.666626C25.0666 0.666626 24.1333 1.06663 23.4666 1.73329L18.8 6.39996L24.2666 11.8666C24.8 11.6 25.3333 11.4666 26 11.4666C28.2666 11.4666 30 13.2 30 15.4666C30 16.1333 29.8666 16.6666 29.6 17.2L34.9333 22.5333C35.4666 22.2666 36 22.1333 36.6666 22.1333C38.9333 22.1333 40.6666 23.8666 40.6666 26.1333C40.6666 28.4 38.9333 30.1333 36.6666 30.1333C34.4 30.1333 32.6666 28.4 32.6666 26.1333C32.6666 25.4666 32.8 24.9333 33.0666 24.4L27.7333 19.0666C27.6 19.0666 27.4666 19.2 27.3333 19.2V33.0666C28.9333 33.6 30 35.0666 30 36.8C30 39.0666 28.2666 40.8 26 40.8C23.7333 40.8 22 39.0666 22 36.8C22 35.0666 23.0666 33.6 24.6666 33.0666V19.0666C23.0666 18.5333 22 17.0666 22 15.3333C22 14.6666 22.1333 14.1333 22.4 13.6L16.9333 8.13329L1.73329 23.4666C1.06663 24.1333 0.666626 25.0666 0.666626 26C0.666626 26.9333 1.06663 27.8666 1.73329 28.5333L23.4666 50.2666C24.1333 50.9333 25.0666 51.3333 26 51.3333C26.9333 51.3333 27.8666 50.9333 28.5333 50.2666L50.2666 28.5333C50.9333 27.8666 51.3333 26.9333 51.3333 26C51.3333 25.0666 50.9333 24.1333 50.2666 23.4666Z" fill="#F4511E"/>
</svg>
