<svg width="71" height="70" viewBox="0 0 91 90" fill="none" xmlns="http://www.w3.org/2000/svg">
<path fill-rule="evenodd" clip-rule="evenodd" d="M45.1321 5.81763C23.079 5.81763 5.25128 23.7766 5.25128 45.9942C5.25128 63.754 16.6741 78.7873 32.5207 84.108C34.5019 84.508 35.2276 83.2435 35.2276 82.1799C35.2276 81.2485 35.1623 78.0559 35.1623 74.7294C24.0684 77.1244 21.7582 69.94 21.7582 69.94C19.9754 65.2838 17.3337 64.0871 17.3337 64.0871C13.7027 61.6259 17.5982 61.6259 17.5982 61.6259C21.626 61.892 23.7394 65.7499 23.7394 65.7499C27.3043 71.869 33.0488 70.14 35.3599 69.0756C35.6896 66.4813 36.7468 64.6854 37.8692 63.6879C29.0211 62.7565 19.7117 59.2977 19.7117 43.8653C19.7117 39.4751 21.2954 35.8834 23.8048 33.0899C23.4088 32.0924 22.0219 27.9675 24.2015 22.4468C24.2015 22.4468 27.5688 21.3823 35.1615 26.5708C38.4122 25.6914 41.7645 25.244 45.1321 25.2402C48.4994 25.2402 51.9321 25.7063 55.1019 26.5708C62.6954 21.3823 66.0627 22.4468 66.0627 22.4468C68.2423 27.9675 66.8545 32.0924 66.4586 33.0899C69.0341 35.8834 70.5525 39.4751 70.5525 43.8653C70.5525 59.2977 61.2431 62.6895 52.3288 63.6879C53.7819 64.9515 55.0358 67.3458 55.0358 71.1376C55.0358 76.5253 54.9705 80.8493 54.9705 82.1791C54.9705 83.2435 55.697 84.508 57.6774 84.1088C73.5239 78.7865 84.9468 63.754 84.9468 45.9942C85.0121 23.7766 67.119 5.81763 45.1321 5.81763Z" fill="white"/>
</svg>
