<svg width="91" height="90" viewBox="0 0 91 90" fill="none" xmlns="http://www.w3.org/2000/svg">
<mask id="mask0_28_32" style="mask-type:alpha" maskUnits="userSpaceOnUse" x="5" y="4" width="81" height="81">
<path d="M28.7542 5.09731C24.4981 5.29819 21.5912 5.9799 19.051 6.97524C16.4214 8.00037 14.1923 9.37419 11.9749 11.6007C9.7548 13.8286 8.39141 16.0616 7.37408 18.6938C6.3891 21.2405 5.72165 24.1488 5.5337 28.4075C5.3471 32.674 5.30431 34.0348 5.32511 44.8968C5.34583 55.7574 5.39377 57.1208 5.59722 61.3886C5.80067 65.6435 6.47984 68.5491 7.47517 71.0906C8.5016 73.7202 9.87401 75.9481 12.1018 78.1669C14.3284 80.3857 16.5627 81.7478 19.1961 82.7665C21.7402 83.7502 24.6497 84.4202 28.9071 84.6068C33.1736 84.7947 34.5356 84.8362 45.3949 84.8155C56.2592 84.7947 57.6214 84.7468 61.8878 84.5446C66.1439 84.3411 69.0482 83.6594 71.591 82.6667C74.2205 81.6376 76.4496 80.2677 78.6671 78.0399C80.8846 75.8133 82.2479 73.579 83.2654 70.9455C84.2503 68.4014 84.9203 65.4918 85.1057 61.237C85.2923 56.9679 85.3364 55.6045 85.3156 44.7438C85.2949 33.8819 85.2457 32.5211 85.0435 28.2559C84.8413 23.9972 84.1596 21.0928 83.1655 18.55C82.1378 15.9204 80.7667 13.6938 78.5401 11.4737C76.3136 9.25625 74.0793 7.89023 71.4458 6.87546C68.9005 5.89047 65.9922 5.21912 61.7348 5.03509C57.4684 4.84587 56.1063 4.80443 45.2432 4.82515C34.3827 4.84588 33.0207 4.89255 28.7542 5.09731ZM29.2208 77.4074C25.3211 77.2376 23.2034 76.5896 21.7921 76.0466C19.9232 75.3234 18.5897 74.4564 17.1861 73.0632C15.7851 71.6647 14.9155 70.335 14.1858 68.4701C13.6376 67.0587 12.978 64.9436 12.7952 61.0439C12.5969 56.8279 12.5516 55.563 12.5321 44.8825C12.5114 34.2046 12.5502 32.9397 12.7343 28.7199C12.9015 24.8227 13.5534 22.7024 14.0951 21.2924C14.8182 19.4209 15.6827 18.0899 17.0785 16.6863C18.4769 15.2827 19.8066 14.4157 21.6728 13.686C23.0829 13.1352 25.198 12.4807 29.0963 12.2954C33.3148 12.0958 34.5784 12.053 45.2562 12.0323C55.9365 12.0115 57.2014 12.0492 61.4212 12.2345C65.3183 12.4043 67.4385 13.0497 68.8473 13.5953C70.7174 14.3185 72.051 15.1803 73.4533 16.5787C74.8556 17.9772 75.7252 19.3043 76.4548 21.1744C77.0056 22.5806 77.6601 24.6983 77.8442 28.5954C78.045 32.814 78.0904 34.0789 78.1098 44.7568C78.1305 55.4373 78.0917 56.7022 77.9064 60.9194C77.7366 64.8191 77.0899 66.9382 76.5456 68.3508C75.8224 70.2184 74.9579 71.552 73.5608 72.9556C72.1638 74.354 70.8341 75.2262 68.9665 75.9559C67.5591 76.5053 65.4414 77.1611 61.5456 77.3465C57.3272 77.5448 56.0635 77.5901 45.3819 77.6096C34.7041 77.6303 33.4405 77.5901 29.2208 77.4074ZM61.8295 23.4386C61.8346 26.0877 63.9886 28.2326 66.6376 28.2274C69.2879 28.2222 71.4328 26.0695 71.429 23.4204C71.4237 20.7714 69.2698 18.6252 66.6195 18.6304C63.9692 18.6355 61.8243 20.7895 61.8295 23.4386ZM24.782 44.8592C24.804 56.2032 34.0173 65.379 45.3586 65.357C56.7012 65.335 65.882 56.1242 65.8601 44.7801C65.838 33.44 56.6234 24.259 45.2795 24.281C33.9382 24.303 24.7599 33.5177 24.782 44.8592ZM31.9864 44.8449C31.9734 37.4822 37.9325 31.5011 45.2938 31.4882C52.6564 31.4739 58.6387 37.4304 58.6529 44.7944C58.6673 52.1584 52.7082 58.1382 45.3443 58.1525C37.983 58.1667 32.0007 52.2089 31.9864 44.8449Z" fill="#000008"/>
</mask>
<g mask="url(#mask0_28_32)">
<rect x="1.97009" y="1.4707" width="87.1" height="87.1" fill="url(#paint0_radial_28_32)"/>
<g filter="url(#filter0_f_28_32)">
<ellipse cx="18.2701" cy="-1.84382" rx="50.25" ry="35.175" transform="rotate(-14.9317 18.2701 -1.84382)" fill="#7334FF"/>
</g>
<g filter="url(#filter1_f_28_32)">
<circle cx="86.2785" cy="2.02913" r="47.4583" fill="#B202F5"/>
</g>
<g filter="url(#filter2_f_28_32)">
<circle cx="18.7202" cy="79.6374" r="26.8" fill="#FFB401"/>
</g>
</g>
<defs>
<filter id="filter0_f_28_32" x="-67.9806" y="-75.0736" width="172.502" height="146.46" filterUnits="userSpaceOnUse" color-interpolation-filters="sRGB">
<feFlood flood-opacity="0" result="BackgroundImageFix"/>
<feBlend mode="normal" in="SourceGraphic" in2="BackgroundImageFix" result="shape"/>
<feGaussianBlur stdDeviation="18.425" result="effect1_foregroundBlur_28_32"/>
</filter>
<filter id="filter1_f_28_32" x="-5.84654" y="-90.0959" width="184.25" height="184.25" filterUnits="userSpaceOnUse" color-interpolation-filters="sRGB">
<feFlood flood-opacity="0" result="BackgroundImageFix"/>
<feBlend mode="normal" in="SourceGraphic" in2="BackgroundImageFix" result="shape"/>
<feGaussianBlur stdDeviation="22.3333" result="effect1_foregroundBlur_28_32"/>
</filter>
<filter id="filter2_f_28_32" x="-43.8132" y="17.1041" width="125.067" height="125.067" filterUnits="userSpaceOnUse" color-interpolation-filters="sRGB">
<feFlood flood-opacity="0" result="BackgroundImageFix"/>
<feBlend mode="normal" in="SourceGraphic" in2="BackgroundImageFix" result="shape"/>
<feGaussianBlur stdDeviation="17.8667" result="effect1_foregroundBlur_28_32"/>
</filter>
<radialGradient id="paint0_radial_28_32" cx="0" cy="0" r="1" gradientUnits="userSpaceOnUse" gradientTransform="translate(36.5868 84.6624) rotate(-61.8868) scale(46.2103)">
<stop stop-color="#FFD502"/>
<stop offset="0.869374" stop-color="#FF1154"/>
</radialGradient>
</defs>
</svg>
