<svg width="94" height="86" viewBox="0 0 94 86" fill="none" xmlns="http://www.w3.org/2000/svg">
<path d="M88.3787 70.546C87.0262 70.559 85.7339 71.1071 84.7844 72.0704C83.8349 73.0337 83.3055 74.3338 83.312 75.6863C83.3185 77.0389 83.8604 78.3338 84.8191 79.288C85.7778 80.2421 87.0753 80.7777 88.4279 80.7777C89.7805 80.7777 91.078 80.2421 92.0367 79.288C92.9955 78.3338 93.5373 77.0389 93.5439 75.6863C93.5504 74.3338 93.021 73.0337 92.0715 72.0704C91.122 71.1071 89.8296 70.559 88.4771 70.546H88.3787ZM88.3787 80.192C87.4916 80.2068 86.62 79.9582 85.8742 79.4776C85.1283 78.997 84.5418 78.306 84.1886 77.4921C83.8355 76.6781 83.7317 75.7777 83.8903 74.9048C84.0488 74.0318 84.4627 73.2255 85.0796 72.5877C85.6964 71.95 86.4885 71.5095 87.3557 71.3219C88.2229 71.1344 89.1263 71.2082 89.9515 71.534C90.7768 71.8598 91.4869 72.4231 91.992 73.1525C92.4972 73.8819 92.7747 74.7447 92.7895 75.6319V75.7071C92.8143 76.8709 92.3759 77.9969 91.5707 78.8375C90.7655 79.6781 89.6594 80.1645 88.4957 80.1897H88.3799M68.7404 69.1483H57.6237V51.7391C57.6237 47.5877 57.5496 42.2436 51.8419 42.2436C46.052 42.2436 45.1661 46.7667 45.1661 51.4368V69.1471H34.0494V33.3467H44.7214V38.2392H44.8708C45.9388 36.4131 47.4821 34.9109 49.3364 33.8925C51.1906 32.8741 53.2864 32.3778 55.4004 32.4562C66.6676 32.4562 68.745 39.8674 68.745 49.5088L68.7404 69.1483ZM21.5061 28.4531C20.2302 28.4533 18.9828 28.0752 17.9218 27.3665C16.8608 26.6578 16.0338 25.6504 15.5453 24.4717C15.0568 23.293 14.9288 21.9959 15.1775 20.7445C15.4262 19.493 16.0404 18.3434 16.9424 17.4411C17.8445 16.5387 18.9939 15.9241 20.2452 15.6749C21.4966 15.4258 22.7937 15.5533 23.9726 16.0414C25.1515 16.5294 26.1592 17.3561 26.8682 18.4169C27.5773 19.4776 27.9558 20.7248 27.9561 22.0008C27.9562 22.8479 27.7895 23.6868 27.4655 24.4696C27.1414 25.2523 26.6663 25.9636 26.0674 26.5627C25.4685 27.1619 24.7574 27.6372 23.9747 27.9616C23.1921 28.2859 22.3533 28.4529 21.5061 28.4531ZM27.0644 69.1483H15.9361V33.3467H27.0644V69.1483ZM74.2825 5.22728H10.35C8.89894 5.2109 7.50071 5.77129 6.46259 6.78531C5.42447 7.79933 4.8314 9.18401 4.81369 10.6351V74.8328C4.83079 76.2846 5.4235 77.6703 6.46158 78.6853C7.49966 79.7004 8.89822 80.2619 10.35 80.2464H74.2825C75.7372 80.2647 77.1397 79.7048 78.1819 78.6898C79.2241 77.6747 79.8207 76.2875 79.8409 74.8328V10.6305C79.8201 9.1765 79.223 7.79025 78.1808 6.77626C77.1386 5.76226 75.7365 5.20347 74.2825 5.22265M89.1904 75.9862C89.3808 75.9881 89.5696 75.9509 89.745 75.8768C89.9203 75.8027 90.0787 75.6934 90.21 75.5556C90.3414 75.4178 90.4431 75.2545 90.5087 75.0758C90.5744 74.8971 90.6026 74.7068 90.5916 74.5167C90.5916 73.4745 89.9628 72.9766 88.6728 72.9766H86.5885V78.433H87.3724V76.0545H88.3359L88.3579 76.0835L89.8529 78.433H90.6912L89.0828 76.0013L89.1904 75.9862ZM88.2838 75.4396H87.3747V73.595H88.5269C89.1221 73.595 89.8007 73.6922 89.8007 74.4715C89.8007 75.3678 89.114 75.4396 88.2791 75.4396" fill="white"/>
</svg>
